<svg class="flow" viewBox="-8 -8 276 104" width="276" height="104" role="img" aria-label="Diagram"><defs><marker id="ah" viewBox="0 0 10 10" refX="9" refY="5" markerWidth="7" markerHeight="7" orient="auto-start-reverse"><path d="M0 0L10 5L0 10Z"/></marker></defs><path class="e line" d="M48 44C77 44 77 44 106 44" marker-end="url(#ah)"/><path class="e line" d="M154 37.54716981132076C183 37.54716981132076 183 21.952830188679243 212 21.952830188679243" marker-end="url(#ah)"/><path class="e line" d="M48 47.22641509433962C130 47.22641509433962 130 69.27358490566037 212 69.27358490566037" marker-end="url(#ah)"/><path class="e line" d="M154 50.45283018867924C183 50.45283018867924 183 66.04716981132076 212 66.04716981132076" marker-end="url(#ah)"/><g class="n box"><rect x="0" y="28.5" width="48" height="31" rx="5"/><text><tspan x="24" y="48">a</tspan></text></g><g class="n box"><rect x="106" y="28.5" width="48" height="31" rx="5"/><text><tspan x="130" y="48">b</tspan></text></g><g class="n box"><rect x="212" y="0" width="48" height="31" rx="5"/><text><tspan x="236" y="19.5">c</tspan></text></g><g class="n box"><rect x="212" y="57" width="48" height="31" rx="5"/><text><tspan x="236" y="76.5">d</tspan></text></g></svg>